# xmcd
#
# Track frame offsets:
#	150
#	20863
#	37128
#	47933
#	64699
#	77355
#	101071
#	125703
#	137492
#	153548
#	164819
#	176974
#	192499
#
# Disc length: 2754 seconds
#
# Revision: 0
# Processed by: cddbd v1.5.2PL0 Copyright (c) Steve Scherf et al.
# Submitted via: audiograbber 1.83.01
#
DISCID=c40ac00d
DTITLE=Various Artist - Colorado Bluegrass Music Society, Vol. 5 [CD1]
DYEAR=2009
DGENRE=Bluegrass
TTITLE0=The Blue Canyon Boys - Just A Few More Miles
TTITLE1=Giddyup Kitty - If You Don't Believe
TTITLE2=Burnett Family Bluegrass - Smuggler's Run
TTITLE3=Nancy Thorwardson and The Silver Stars - Times Like These
TTITLE4=Ashleigh Caudill - Gone
TTITLE5=The Stanleytones Bluegrass Band - Whiskey Jim Blues
TTITLE6=Cowtown - My Home On the Pretty Prairie
TTITLE7=Special Blend - Colorado Morning
TTITLE8=Backwoods Galaxy - Rigadoon Run
TTITLE9=Shalom Feivel and Rocky Mountain Jewgrass - Mah Nishtana
TTITLE10=Sandy Reay - Hitchhiker
TTITLE11=Kent and Karen Riggs - Me And Jack Daniels
TTITLE12=Big Timbre - Not Quite Through
EXTD=
EXTT0=
EXTT1=
EXTT2=
EXTT3=
EXTT4=
EXTT5=
EXTT6=
EXTT7=
EXTT8=
EXTT9=
EXTT10=
EXTT11=
EXTT12=
PLAYORDER=
